<svg width="1603" height="1563" viewBox="0 0 1603 1563" fill="none" xmlns="http://www.w3.org/2000/svg">
<g id="clockOrigin">
<path id="ellipse321" d="M801.138 1562.05C1243.59 1562.05 1602.28 1212.38 1602.28 781.027C1602.28 349.678 1243.59 0 801.138 0C358.682 0 0 349.678 0 781.027C0 1212.38 358.682 1562.05 801.138 1562.05Z" fill="white"/>
<path id="path325" d="M801.088 14.2404C366.739 14.2404 14.7341 357.488 14.7341 780.955C14.7341 1204.41 366.733 1547.67 801.088 1547.67C1235.43 1547.67 1587.65 1204.41 1587.65 780.955C1587.66 357.488 1235.43 14.2404 801.088 14.2404ZM791.308 21.5059L800.672 40.477C663.018 40.5493 533.894 76.2743 422.581 138.763L420.916 117.976C530.731 57.9754 656.867 23.1313 791.308 21.5059ZM811.7 21.7074C945.804 23.4489 1071.68 58.1374 1181.26 117.976L1180.43 139.368C1068.97 76.5999 939.662 40.5843 801.712 40.4767L811.7 21.7074ZM801.088 47.3385C1216.67 47.3385 1553.52 375.79 1553.52 780.954C1553.52 1186.09 1216.67 1514.57 801.088 1514.57C385.51 1514.57 48.652 1186.09 48.652 780.954C48.652 375.796 385.51 47.3385 801.088 47.3385ZM403.437 127.865L421.749 139.368C306.827 204.089 211.111 297.386 144.371 409.202L132.094 391.846C198.606 283.416 292.057 192.472 403.437 127.865V127.865ZM1199.57 128.268C1310.75 192.899 1403.9 283.72 1470.29 392.047L1458.64 410.009C1392.14 298.243 1296.51 204.832 1181.88 139.974L1199.57 128.268ZM121.898 408.798L143.955 409.808C79.2497 518.461 41.912 644.525 41.5771 779.138L22.2252 769.249C24.2586 638.39 60.1828 515.613 121.898 408.798ZM1481.11 410.009C1542.61 516.921 1578.37 639.775 1580.16 770.662L1560.6 779.744C1560.38 645.685 1523.79 520.014 1459.68 411.624L1481.11 410.009ZM41.5771 780.147C41.5768 780.419 41.5771 780.683 41.5771 780.955C41.5771 914.725 78.0175 1040.36 141.666 1148.67L120.233 1150.29C58.979 1043.17 23.421 920.054 22.0171 789.027L41.5771 780.147ZM1560.6 781.964L1580.16 791.853C1578.27 922.381 1542.61 1045.03 1481.32 1151.7L1459.47 1150.89C1523.75 1042.36 1560.42 916.258 1560.6 781.964ZM142.498 1150.08C208.666 1262.11 303.979 1355.52 418.419 1420.72L400.732 1432.63C289.813 1367.7 196.696 1276.73 130.638 1168.25L142.498 1150.08ZM1458.01 1153.31L1470.08 1170.47C1403.7 1278.63 1310.63 1369.29 1199.57 1433.84L1181.05 1422.34C1295.63 1357.69 1391.39 1264.81 1458.01 1153.31ZM420.5 1421.93C531.729 1484.84 660.847 1521 798.591 1521.43L788.395 1540.4C654.54 1538.3 528.976 1503.31 419.668 1443.33L420.5 1421.93ZM1178.55 1423.75L1180.22 1444.74C1070.56 1504.39 944.575 1539.07 810.452 1540.61L801.088 1521.43C938.471 1521.43 1067.37 1485.94 1178.55 1423.75Z" fill="url(#paint0_linear)"/>
<path id="path376" d="M731.587 65.7062V72.9717V74.5863V81.65H739.078H741.784L759.263 162.378L742.616 237.455H739.911H732.628V244.519V246.133V253.399H739.911H760.511H767.794V246.133V244.519V237.455H760.927L768.21 204.357L775.285 237.455H768.21V244.519V246.133V253.399H775.493H796.302H802.752H803.585H810.035H830.636H830.844H837.919H838.126H865.177H872.46V246.133V244.519V237.455H865.177H863.721V81.65H865.177H872.46V74.5863V72.9717V65.7062H865.177H838.126H837.919H830.844H830.636H805.458H803.585H797.967H796.302H777.158H773.204H769.875H765.921H739.078H731.587ZM766.338 81.65H769.875H773.204H776.742L771.54 105.465L766.338 81.65ZM795.261 81.65H796.302H797.967H803.585H804.833V237.455H803.585H802.752H800.047L780.695 147.847L795.261 81.65ZM829.179 81.65H830.636H830.844H837.919H838.126H839.375V237.455H838.126H837.919H830.844H830.636H829.179V81.65ZM481.053 135.334L474.81 138.765L451.297 151.883L448.383 153.7L446.511 154.709L428.407 164.8L425.078 166.818L418.835 170.249L395.322 183.569L389.079 187L392.825 193.256L393.657 194.669L397.194 200.724L403.645 197.293L405.934 195.88L462.533 257.233L486.671 330.292L484.174 331.705L477.931 335.136L481.469 341.392L482.301 342.805L486.047 349.062L492.289 345.429L510.185 335.338L516.427 331.907L512.89 325.65L512.057 324.238L508.52 317.981L502.486 321.412L491.873 289.121L514.763 314.348L508.728 317.779L512.474 324.036L513.098 325.449L516.843 331.705L523.294 328.072L546.807 314.752L553.258 311.119L570.946 301.23L577.188 297.597L573.651 291.543L572.818 290.13L569.073 283.874L562.83 287.506L561.582 288.111L481.677 153.296L482.926 152.691L489.376 149.058L485.631 142.801L484.798 141.389L481.053 135.334ZM1151.92 152.489L1148.17 158.745L1147.34 160.158L1143.6 166.213L1150.05 169.845L1151.09 170.45L1071.18 305.266L1070.14 304.661L1063.69 301.23L1060.15 307.285L1059.32 308.697L1055.58 314.954L1062.03 318.587L1085.33 331.705L1091.78 335.338L1095.32 329.081L1096.15 327.669L1099.9 321.412L1093.45 317.981L1092.41 317.174L1172.31 182.358L1173.35 182.963L1179.8 186.596L1183.34 180.34L1184.17 178.927L1187.92 172.872L1181.47 169.24L1158.16 156.121L1151.92 152.488V152.489ZM460.452 165.203L540.357 300.019L538.692 301.028L536.403 302.239L473.562 234.226L452.337 169.845L454.626 168.433L460.452 165.203ZM436.314 178.725L444.014 201.935L427.367 183.973L433.401 180.542L436.314 178.725ZM185.156 390.636L181.41 396.893L171.006 414.451L167.468 420.708L165.388 423.937L152.07 446.742L148.325 452.999L154.775 456.43L156.024 457.237L162.474 460.87L166.012 454.613L167.468 452.393L247.997 477.823L306.261 529.489L304.805 531.709L301.267 537.965L307.51 541.598L308.966 542.405L315.417 545.836L318.954 539.781L329.359 522.425L332.896 516.168L326.654 512.536L325.197 511.728L318.954 508.298L315.417 514.15L289.614 491.345L322.492 501.839L318.954 507.894L325.405 511.527L326.862 512.334L333.104 515.765L336.85 509.71L350.375 486.703L354.121 480.446L347.878 476.814L346.422 476.006L339.971 472.374L336.434 478.63L334.977 480.85L245.708 452.595L194.311 407.186L195.56 404.764L199.305 398.709L192.855 395.076L191.398 394.269L185.156 390.636ZM1418.68 393.058L1412.23 396.691L1410.78 397.498L1404.53 401.131L1408.07 407.186L1408.7 408.195L1270.32 486.097L1269.7 485.088L1266.16 478.832L1259.71 482.465L1258.25 483.272L1252.01 486.905L1255.55 492.959L1269.07 515.765L1269.28 516.168L1272.82 522.223L1286.34 545.029L1290.09 551.285L1296.33 547.652L1297.79 546.845L1304.24 543.212L1300.49 537.158L1299.87 535.947L1438.24 458.044L1438.87 459.255L1442.61 465.31L1448.86 461.879L1450.31 461.072L1456.76 457.439L1453.02 451.182L1439.49 428.377L1435.96 422.322L1435.75 422.121L1422.22 399.315L1418.68 393.059V393.058ZM184.948 422.726L203.467 439.073L179.745 431.606L183.283 425.753L184.948 422.726ZM1420.97 428.982L1421.6 429.991L1421.81 430.193L1425.34 436.449L1425.97 437.458L1287.59 515.159L1286.97 514.352L1283.43 508.096L1283.22 507.894L1282.6 506.885L1420.97 428.983L1420.97 428.982ZM243.628 721.823V728.887V731.51L151.654 750.482L83.8181 736.152V733.529V726.465H76.5351H74.8705H67.3794V733.529V753.912V757.545V760.976V764.811V788.827V791.047V796.093V798.313V822.329V829.393H74.8705H76.5351H83.8181V822.329V821.119H243.628V822.329V829.393H250.911H252.575H259.858V822.329V797.304V796.093V790.24V788.827V770.058V762.994H252.575H250.911H243.628V769.654L209.71 762.591L243.628 755.729V762.591H250.911H252.575H259.858V755.527V728.887V721.823H252.575H250.911H243.628ZM1342.53 729.089V736.354V762.591V762.792V769.856V770.057V796.294V796.496V803.559V803.761V829.997V837.061H1349.81H1351.47H1358.76V829.997V828.786H1518.57V829.997V837.061H1525.85H1527.51H1534.8V829.997V803.761V803.559V796.496V796.294V770.057V769.856V762.792V762.591V736.354V729.089H1527.51H1525.85H1518.57V736.354V737.363H1358.76V736.354V729.089H1351.47H1349.81H1342.53ZM83.8181 754.316L108.164 759.362L83.8181 764.407V760.976V757.545V754.316ZM1358.76 761.38H1518.57V762.591V762.792V769.856V770.057V771.067H1358.76V770.057V769.856V762.792V762.591V761.38ZM166.636 771.269L243.628 787.415V788.827V790.24V796.093V797.304H83.8181V791.047V788.827V788.424L166.636 771.269ZM1358.76 795.084H1518.57V796.295V796.496V803.56V803.761V804.771H1358.76V803.761V803.56V796.496V796.295V795.084ZM286.701 967.842L280.459 971.273L279.002 972.08L272.551 975.713L276.297 981.969L276.921 982.978L138.545 1060.88L137.92 1059.67L134.175 1053.62L127.932 1057.05L126.476 1057.85L120.025 1061.49L123.77 1067.74L137.296 1090.55V1090.75L141.042 1096.8L154.567 1119.61L158.313 1125.87V1126.07L171.838 1148.87L175.584 1155.13L184.531 1170.27L188.277 1176.52L194.519 1172.89L195.976 1172.08L202.427 1168.45L198.681 1162.4L198.473 1161.99L266.309 1135.55L207.837 1177.73L207.421 1177.33L203.883 1171.07L197.433 1174.71L196.184 1175.51L189.733 1178.94L193.479 1185.2L207.005 1208.01L210.542 1214.26L216.993 1210.63L218.241 1209.82L224.692 1206.19L220.946 1200.14L219.906 1198.32L357.242 1099.63L362.652 1096L359.323 1090.35L357.658 1087.52L354.537 1082.07L348.502 1084.49L189.525 1146.86L188.277 1145.04L185.364 1139.99L323.74 1062.09L324.365 1063.1L327.902 1069.36L334.353 1065.72L335.809 1064.92L342.052 1061.28L338.514 1055.03L324.989 1032.22L324.781 1032.02L321.243 1025.97L307.718 1003.16L303.972 996.904V996.703L290.447 973.897L286.701 967.842V967.842ZM1300.08 994.28L1296.33 1000.54L1282.81 1023.34L1279.06 1029.6L1285.51 1032.83L1286.97 1033.64L1293.42 1037.27L1296.95 1031.21L1297.79 1030L1436.79 1107.5L1436.16 1108.51L1432.42 1114.77L1438.87 1118.2L1440.33 1119L1446.57 1122.84L1450.31 1116.58L1463.84 1093.78L1467.59 1087.72L1461.13 1084.09L1459.68 1083.28L1453.44 1079.85L1449.69 1085.91L1449.07 1086.92L1310.06 1009.42L1310.69 1008.41L1314.23 1002.15L1307.98 998.72L1306.53 998.115L1300.08 994.28ZM289.198 1003.77L289.822 1004.77V1004.98L291.071 1006.99L293.36 1010.83L293.568 1011.03L294.192 1012.24L155.816 1090.14L155.191 1088.93L151.446 1082.88V1082.47L150.822 1081.67L289.198 1003.77V1003.77ZM306.469 1032.83L307.094 1033.84V1034.04L310.839 1040.29L311.463 1041.3L173.087 1119.21L172.462 1118.2L172.254 1118L168.717 1111.74L168.093 1110.73L306.469 1032.83ZM1264.29 1054.02L1260.96 1059.67L1259.29 1062.5L1256.17 1067.94L1261.16 1071.78L1396.21 1175.11L1395.38 1177.13L1391.63 1183.39L1397.88 1186.61L1399.33 1187.62L1405.78 1191.26L1409.53 1185.2L1419.52 1167.85L1423.47 1161.79L1416.81 1158.16L1415.36 1157.35L1409.32 1153.72L1405.58 1159.97L1405.37 1160.18L1347.73 1115.98L1414.73 1144.64L1414.32 1144.84L1410.78 1151.09L1417.02 1154.73L1418.48 1155.53L1424.93 1158.96L1428.67 1153.11L1441.99 1130.31L1445.74 1124.05L1439.29 1120.62L1437.83 1119.61L1431.38 1115.98L1427.84 1122.03L1427.01 1123.85L1270.32 1056.84L1264.29 1054.02L1264.29 1054.02ZM466.279 1201.95L462.741 1208.21L461.909 1209.62L458.163 1215.68L464.614 1219.31L465.654 1219.91L385.75 1354.73L384.709 1354.13L378.259 1350.69L374.721 1356.75L373.889 1358.16L370.143 1364.42L376.594 1368.05L399.9 1381.17L406.35 1384.8H406.558L429.863 1397.92L433.193 1399.94L434.025 1400.34L451.712 1410.43L458.163 1413.86L461.909 1407.81L462.741 1406.4L466.278 1400.14L460.036 1396.51H459.62L504.774 1340.4L475.85 1405.39L475.226 1405.19L468.984 1401.55L465.238 1407.81L464.406 1409.22L460.868 1415.48L467.111 1418.91L490.625 1432.23L496.867 1435.66L500.613 1429.61L501.445 1428.19L504.983 1421.94L498.74 1418.3L496.867 1417.3L565.327 1264.92L567.824 1259.07L562.206 1255.84L559.293 1254.22L553.674 1251.2L549.721 1256.04L444.014 1387.63L443.39 1387.22L437.979 1384.2L436.939 1383.59L516.844 1248.78L517.884 1249.38L524.127 1252.81L527.872 1246.76L528.705 1245.34L532.45 1239.09L526 1235.46L502.694 1222.34L502.486 1222.14L500.822 1221.33L496.244 1218.7H496.036L472.73 1205.59L466.28 1201.95L466.279 1201.95ZM486.879 1231.82L487.92 1232.43L494.37 1236.06H494.578L495.618 1236.87L415.714 1371.68L414.673 1371.08L414.465 1370.88L408.015 1367.24L406.974 1366.84L486.879 1231.82V1231.82ZM1079.3 1233.84L1073.47 1237.07L1070.56 1238.68L1065.15 1241.91L1067.44 1247.56L1131.53 1402.56L1129.65 1403.77L1123.2 1407.41L1126.95 1413.46L1127.78 1414.87L1131.32 1421.13L1137.77 1417.5L1155.46 1407.41L1161.91 1403.97L1158.16 1397.72L1157.33 1396.31L1153.79 1390.05L1147.34 1393.68L1147.13 1393.88L1119.87 1327.89L1163.16 1384.8L1162.74 1385L1156.5 1388.64L1160.04 1394.89L1160.87 1396.31L1164.61 1402.36L1170.86 1398.93L1194.16 1385.61L1200.61 1382.18L1196.87 1375.92L1196.03 1374.51L1192.5 1368.25L1186.05 1371.88L1184.38 1372.89L1083.04 1239.09L1079.3 1233.84L1079.3 1233.84ZM744.281 1308.72V1315.98V1317.6V1324.66H751.772H753.02V1480.46H751.772H744.281V1487.53V1489.14V1496.21H751.772H776.118H778.615H783.401H786.106H804.001H811.492V1489.14V1487.53V1480.46H804.001H803.793L813.989 1410.03L822.313 1480.46H821.689H814.406V1487.53V1489.14V1496.21H821.689H848.74H856.023V1489.14V1487.53V1480.46H848.74H846.659L827.723 1315.17L827.099 1308.72H820.441H817.111H810.661L809.828 1314.97L785.691 1480.46H783.402H778.616H777.575V1324.66H778.616H786.107V1317.6V1315.98V1308.72H778.616H751.773H744.282H744.281Z" fill="url(#paint1_linear)"/>
<g id="g426">
<path id="path428" d="M725.18 21.196L713.647 22.3843L716.098 45.1884L716.83 52.0535C720.672 51.6337 724.541 51.2398 728.376 50.8781L727.637 44.013L725.18 21.196V21.196Z" fill="#010101"/>
<path id="path430" d="M644.127 33.1298L632.761 35.4676L637.648 57.8002L639.12 64.5362C642.909 63.7418 646.671 62.9216 650.473 62.1531L649.015 55.4042L644.127 33.1298V33.1298Z" fill="#010101"/>
<path id="path432" d="M564.805 53.2169L553.758 56.7107L560.969 78.3588L563.173 84.9204C566.829 83.7256 570.525 82.5631 574.207 81.4329L572.029 74.852L564.805 53.2169V53.2169Z" fill="#010101"/>
<path id="path434" d="M488.05 81.2628L477.456 85.874L486.965 106.682L489.835 112.992C493.364 111.436 496.92 109.918 500.462 108.407L497.566 102.11L488.05 81.2628V81.2628Z" fill="#010101"/>
<path id="path436" d="M345.688 160.01L336.306 166.682L350.109 185.223L354.271 190.81C357.374 188.569 360.497 186.334 363.653 184.132L359.485 178.552L345.688 160.01V160.01Z" fill="#010101"/>
<path id="path438" d="M281.585 209.829L272.968 217.417L288.723 234.474L293.464 239.601C296.327 237.057 299.224 234.538 302.12 232.039L297.379 226.911L281.585 209.829V209.829Z" fill="#010101"/>
<path id="path440" d="M223.198 265.917L215.427 274.319L232.926 289.683L238.207 294.314C240.77 291.485 243.347 288.657 245.964 285.867L240.704 281.262L223.198 265.917V265.917Z" fill="#010101"/>
<path id="path442" d="M171.128 327.632L164.316 336.784L183.32 350.243L189.054 354.305C191.304 351.231 193.595 348.183 195.892 345.16L190.146 341.098L171.128 327.632V327.632Z" fill="#010101"/>
<path id="path444" d="M88.2001 465.231L83.499 475.59L104.86 484.845L111.326 487.654C112.891 484.193 114.429 480.738 116.04 477.295L109.561 474.499L88.2001 465.231V465.231Z" fill="#010101"/>
<path id="path446" d="M83.6261 559.53C84.7913 555.94 85.9766 552.33 87.2151 548.771L80.4765 546.64L58.243 539.613L54.6672 550.366L76.8808 557.393L83.6261 559.53V559.53Z" fill="#010101"/>
<path id="path448" d="M63.839 633.876C64.6114 630.162 65.4504 626.488 66.2894 622.8L59.3443 621.386L36.4117 616.652L34.0479 627.734L56.8939 632.442L63.839 633.876Z" fill="#010101"/>
<path id="path450" d="M52.2195 709.852C52.599 706.087 53.0185 702.341 53.4447 698.596L46.3998 697.872L22.9943 695.47L21.8091 706.727L45.1612 709.103L52.2195 709.852Z" fill="#010101"/>
<path id="path452" d="M53.396 863.189C52.9698 859.443 52.5636 855.697 52.2041 851.932L45.1325 852.642L21.7737 855.071L22.9922 866.308L46.3577 863.905L53.396 863.189V863.189Z" fill="#010101"/>
<path id="path454" d="M66.2242 938.957C65.3985 935.27 64.5462 931.595 63.7737 927.907L56.8487 929.341L33.9626 934.101L36.3931 945.157L59.2924 940.398L66.2242 938.957V938.957Z" fill="#010101"/>
<path id="path456" d="M83.5262 1002.25L76.7942 1004.39L54.5874 1011.43L58.2164 1022.16L80.3833 1015.16L87.1219 1013.03C85.8834 1009.42 84.6981 1005.86 83.5262 1002.25V1002.25Z" fill="#010101"/>
<path id="path458" d="M104.741 1076.96L83.3801 1086.24L88.1212 1096.57L109.422 1087.28L115.881 1084.49C114.29 1081.04 112.752 1077.6 111.2 1074.15L104.741 1076.96Z" fill="#010101"/>
<path id="path460" d="M183.154 1211.59L164.17 1225.07L170.989 1234.2L189.98 1220.74L195.706 1216.67C193.422 1213.62 191.118 1210.6 188.874 1207.52L183.154 1211.59V1211.59Z" fill="#010101"/>
<path id="path462" d="M232.755 1272.16L215.269 1287.53L223.047 1295.91L240.486 1280.59L245.773 1275.95C243.149 1273.18 240.586 1270.35 238.016 1267.53L232.755 1272.16V1272.16Z" fill="#010101"/>
<path id="path464" d="M288.503 1327.41L272.775 1344.48L281.411 1352.02L297.146 1334.94L301.88 1329.82C299.004 1327.31 296.1 1324.81 293.244 1322.26L288.503 1327.41Z" fill="#010101"/>
<path id="path466" d="M349.88 1376.69L336.089 1395.25L345.472 1401.85L359.249 1383.34L363.41 1377.76C360.281 1375.55 357.151 1373.35 354.055 1371.1L349.88 1376.69V1376.69Z" fill="#010101"/>
<path id="path468" d="M486.718 1455.28L477.222 1476.08L487.816 1480.64L497.298 1459.84L500.195 1453.52C496.646 1452.03 493.11 1450.52 489.587 1448.95L486.718 1455.28Z" fill="#010101"/>
<path id="path470" d="M560.738 1483.63L553.547 1505.27L564.554 1508.72L571.752 1487.13L573.949 1480.53C570.274 1479.39 566.591 1478.23 562.929 1477.06L560.738 1483.63V1483.63Z" fill="#010101"/>
<path id="path472" d="M637.393 1504.21L632.559 1526.54L643.878 1528.87L648.719 1506.58L650.191 1499.85C646.389 1499.07 642.64 1498.26 638.864 1497.43L637.393 1504.21V1504.21Z" fill="#010101"/>
<path id="path474" d="M715.838 1516.85L713.401 1539.62L724.907 1540.79L727.364 1518.04L728.096 1511.15C724.254 1510.81 720.399 1510.38 716.583 1509.96L715.838 1516.85Z" fill="#010101"/>
<path id="path476" d="M885.419 1510.01C881.577 1510.43 877.741 1510.83 873.893 1511.17L874.638 1518.06L877.122 1540.83L888.602 1539.62L886.151 1516.87L885.419 1510.01V1510.01Z" fill="#010101"/>
<path id="path478" d="M963.13 1497.52C959.355 1498.31 955.586 1499.13 951.797 1499.9L953.276 1506.67L958.156 1528.95L969.463 1526.57L964.609 1504.28L963.13 1497.52Z" fill="#010101"/>
<path id="path480" d="M1039.09 1477.14C1035.44 1478.33 1031.75 1479.49 1028.06 1480.6L1030.28 1487.2L1037.5 1508.83L1048.48 1505.29L1041.28 1483.71L1039.09 1477.14V1477.14Z" fill="#010101"/>
<path id="path482" d="M1112.41 1449.09C1108.9 1450.62 1105.36 1452.14 1101.82 1453.65L1104.71 1459.97L1114.22 1480.76L1124.77 1476.13L1115.31 1455.41L1112.41 1449.09Z" fill="#010101"/>
<path id="path484" d="M1248 1371.25C1244.9 1373.48 1241.78 1375.71 1238.64 1377.89L1242.81 1383.5L1256.62 1402.01L1265.94 1395.35L1252.16 1376.86L1248 1371.25V1371.25Z" fill="#010101"/>
<path id="path486" d="M1308.81 1322.45C1305.96 1325.01 1303.08 1327.5 1300.2 1329.98L1304.95 1335.12L1320.73 1352.2L1329.27 1344.61L1313.57 1327.61L1308.81 1322.45V1322.45Z" fill="#010101"/>
<path id="path488" d="M1364.05 1267.75C1361.51 1270.58 1358.93 1273.38 1356.32 1276.15L1361.58 1280.77L1379.08 1296.13L1386.8 1287.7L1369.33 1272.36L1364.05 1267.75V1267.75Z" fill="#010101"/>
<path id="path490" d="M1413.22 1207.78C1410.98 1210.82 1408.69 1213.85 1406.4 1216.9L1412.13 1220.94L1431.16 1234.4L1437.93 1225.25L1418.95 1211.81L1413.22 1207.78V1207.78Z" fill="#010101"/>
<path id="path492" d="M1490.95 1074.41C1489.42 1077.85 1487.87 1081.32 1486.26 1084.75L1492.75 1087.55L1514.1 1096.82L1518.75 1086.46L1497.42 1077.22L1490.95 1074.41V1074.41Z" fill="#010101"/>
<path id="path494" d="M1518.65 1002.51C1517.51 1006.13 1516.31 1009.7 1515.09 1013.27L1521.83 1015.4L1544.05 1022.39L1547.54 1011.65L1525.4 1004.64L1518.65 1002.51V1002.51Z" fill="#010101"/>
<path id="path496" d="M1538.45 928.172C1537.67 931.866 1536.84 935.534 1536 939.202L1542.92 940.642L1565.86 945.376L1568.2 934.326L1545.38 929.618L1538.45 928.172Z" fill="#010101"/>
<path id="path498" d="M1550.07 852.205C1549.69 855.976 1549.29 859.715 1548.85 863.461L1555.89 864.152L1579.29 866.535L1580.42 855.337L1557.11 852.954L1550.07 852.205V852.205Z" fill="#010101"/>
<path id="path500" d="M1548.88 698.841C1549.3 702.586 1549.71 706.332 1550.09 710.065L1557.14 709.348L1580.54 706.939L1579.24 695.734L1555.92 698.117L1548.88 698.841Z" fill="#010101"/>
<path id="path502" d="M1536.06 623.105C1536.88 626.767 1537.73 630.435 1538.5 634.135L1545.42 632.669L1568.33 627.91L1565.83 616.931L1542.98 621.665L1536.06 623.105V623.105Z" fill="#010101"/>
<path id="path504" d="M1518.73 559.775L1525.48 557.638L1547.68 550.572L1544.04 539.877L1521.9 546.891L1515.16 549.029C1516.38 552.594 1517.58 556.178 1518.73 559.775Z" fill="#010101"/>
<path id="path506" d="M1497.52 485.058L1518.9 475.752L1514.14 465.483L1492.85 474.738L1486.35 477.534C1487.96 480.964 1489.51 484.425 1491.06 487.874L1497.52 485.058V485.058Z" fill="#010101"/>
<path id="path508" d="M1412.28 341.312L1406.56 345.368C1408.85 348.39 1411.15 351.432 1413.38 354.506L1419.12 350.438L1438.11 336.94L1431.28 327.853L1412.28 341.312V341.312Z" fill="#010101"/>
<path id="path510" d="M1361.76 281.457L1356.5 286.068C1359.11 288.839 1361.67 291.674 1364.23 294.496L1369.49 289.859L1387 274.469L1379.21 266.125L1361.76 281.457Z" fill="#010101"/>
<path id="path512" d="M1305.12 227.079L1300.38 232.207C1303.27 234.713 1306.15 237.212 1309.01 239.737L1313.74 234.609L1329.49 217.514L1320.86 210.016L1305.12 227.079V227.079Z" fill="#010101"/>
<path id="path514" d="M1243.01 178.701L1238.84 184.281C1241.97 186.483 1245.09 188.718 1248.21 190.946L1252.36 185.372L1266.19 166.786L1256.79 160.192L1243.01 178.701V178.701Z" fill="#010101"/>
<path id="path516" d="M1176.02 136.914L1172.49 142.882C1175.86 144.748 1179.18 146.66 1182.51 148.578L1186.06 142.604L1197.78 122.745L1187.72 117.158L1176.02 136.914V136.914Z" fill="#010101"/>
<path id="path518" d="M1104.93 102.196L1102.06 108.506C1105.59 110.017 1109.14 111.528 1112.65 113.091L1115.54 106.775L1125.02 85.9538L1114.44 81.3943L1104.93 102.196V102.196Z" fill="#010101"/>
<path id="path520" d="M1030.5 74.9219L1028.31 81.4964C1032 82.6265 1035.67 83.7955 1039.35 84.9967L1041.52 78.4287L1048.74 56.7226L1037.71 53.3062L1030.5 74.9219Z" fill="#010101"/>
<path id="path522" d="M953.523 55.4692L952.058 62.2051C955.84 62.9543 959.616 63.7745 963.391 64.6011L964.863 57.8523L969.717 35.4809L958.391 33.1882L953.523 55.4692V55.4692Z" fill="#010101"/>
<path id="path524" d="M874.892 87.6053L874.153 94.4575C878.001 94.8256 881.843 95.2325 885.699 95.6458L886.418 88.7807L888.842 65.9379L877.349 64.8142L874.892 87.6053V87.6053Z" fill="#010101"/>
</g>
<path id="smallPointer" d="M1089.23 557.133C1095.05 514.689 1162.9 436.396 1194.5 402.006L1199.51 397.111C1198.64 397.879 1197.75 398.674 1196.86 399.455C1197.66 398.615 1198.46 397.731 1199.26 396.878L1194.21 401.799C1158.94 432.625 1078.73 498.828 1035.44 504.705C951.824 516.046 968.777 572.103 979.837 595.54L793.473 777.217L809.88 793.227L996.384 611.408C1020.91 622.348 1078.09 638.468 1089.23 557.133V557.133Z" fill="url(#paint2_linear)"/>
<path id="bigPointer" d="M262.771 257.636C263.571 258.463 264.469 259.407 265.269 260.26L267.766 262.682C299.628 296.839 368.346 374.421 376.802 414.249C393.103 491.059 445.51 479.289 467.319 470.758L903.674 895.993C888.427 917.142 890.073 946.093 908.876 964.41C923.419 978.618 944.369 982.664 963.186 976.923L961.105 974.904C944.772 978.547 926.83 974.225 914.078 961.786C894.382 942.573 894.448 911.496 914.078 892.36C933.701 873.231 965.54 873.153 985.243 892.36C997.995 904.805 1002.5 922.241 998.769 938.173L1000.85 940.191C1006.74 921.824 1002.49 901.289 987.948 887.113C969.162 868.788 939.518 867.257 917.824 882.067L481.469 456.833C490.397 435.312 502.366 384.13 423.413 368.637C382.356 360.571 303.032 293.518 267.974 262.48L262.771 257.636Z" fill="url(#paint3_linear)"/>
<g id="dot">
<path id="ellipse542" d="M801.143 833.5C830.865 833.5 854.959 810.007 854.959 781.027C854.959 752.047 830.865 728.554 801.143 728.554C771.422 728.554 747.328 752.047 747.328 781.027C747.328 810.007 771.422 833.5 801.143 833.5Z" fill="url(#paint4_radial)"/>
<path id="path544" d="M810.926 781.028C810.926 786.285 806.552 790.573 801.151 790.573C795.751 790.573 791.35 786.285 791.35 781.028C791.35 775.751 795.745 771.489 801.151 771.489C806.552 771.482 810.926 775.745 810.926 781.028Z" fill="url(#paint5_radial)"/>
</g>
</g>
<defs>
<linearGradient id="paint0_linear" x1="793.966" y1="-1.10371" x2="804.374" y2="1533.44" gradientUnits="userSpaceOnUse">
<stop/>
<stop offset="0.5" stop-color="#404040"/>
<stop offset="1"/>
</linearGradient>
<linearGradient id="paint1_linear" x1="801.093" y1="71.9404" x2="799.819" y2="1495.19" gradientUnits="userSpaceOnUse">
<stop/>
<stop offset="0.5" stop-color="#404040"/>
<stop offset="1"/>
</linearGradient>
<linearGradient id="paint2_linear" x1="789.441" y1="789.25" x2="1189.83" y2="384.706" gradientUnits="userSpaceOnUse">
<stop/>
<stop offset="0.5" stop-color="#404040"/>
<stop offset="1"/>
</linearGradient>
<linearGradient id="paint3_linear" x1="265.459" y1="262.726" x2="971.665" y2="993.335" gradientUnits="userSpaceOnUse">
<stop/>
<stop offset="0.5" stop-color="#404040"/>
<stop offset="1"/>
</linearGradient>
<radialGradient id="paint4_radial" cx="0" cy="0" r="1" gradientUnits="userSpaceOnUse" gradientTransform="translate(801.143 781.027) scale(53.8158 52.4732)">
<stop stop-color="#404040"/>
<stop offset="1"/>
</radialGradient>
<radialGradient id="paint5_radial" cx="0" cy="0" r="1" gradientUnits="userSpaceOnUse" gradientTransform="translate(801.145 781.028) scale(53.8157 52.4731)">
<stop stop-color="#404040"/>
<stop offset="1"/>
</radialGradient>
</defs>
</svg>
